# xmcd
# 
# Track frame offsets:
#     150
#     13367
#     25525
#     38625
#     51245
#     65330
#     78167
#     88875
#     100377
#     111815
#     122595
#     135310
#     147655
#     157857
#     168975
#     181992
#     200122
#     214127
#     224800
#     236662
# 
# Disc length: 3326
# 
# Revision: 5
# Processed by: cddbd v1.5.2PL0 Copyright (c) Steve Scherf et al.
# Submitted via: BonkEnc v1.0.5
# 
DISCID=200cfc14
DTITLE=Howlin'  Wolf - His Best
DYEAR=1997
DGENRE=Blues
TTITLE0=Moanin' At Midnight
TTITLE1=How Many More Years
TTITLE2=Evil
TTITLE3=Forty-Four
TTITLE4=Smokestack Lightnin'
TTITLE5=I Asked For Water
TTITLE6=Who's Been Talkin'
TTITLE7=Sitting On Top Of The World
TTITLE8=Howlin' For My Darling
TTITLE9=Wang Dang Doodle
TTITLE10=Back Door Man
TTITLE11=Spoonful
TTITLE12=Shake For M
TTITLE13=The Red Rooster
TTITLE14=I Ain't Superstitious
TTITLE15=Goin' Down Slow
TTITLE16=Three Hundred Pounds Of Joy
TTITLE17=Hidden Charms
TTITLE18=Built For Comfort
TTITLE19=Killing Floor
EXTD=YEAR: 2001
EXTT0=
EXTT1=
EXTT2=
EXTT3=
EXTT4=
EXTT5=
EXTT6=
EXTT7=
EXTT8=
EXTT9=
EXTT10=
EXTT11=
EXTT12=
EXTT13=
EXTT14=
EXTT15=
EXTT16=
EXTT17=
EXTT18=
EXTT19=
PLAYORDER=
